<svg xmlns="http://www.w3.org/2000/svg" viewBox="0 0 64 64">
  <defs>
    <linearGradient id="bg" x1="0" y1="0" x2="0" y2="1">
      <stop offset="0" stop-color="#641A18"/>
      <stop offset="1" stop-color="#4A1110"/>
    </linearGradient>
  </defs>
  <rect x="2" y="2" width="60" height="60" rx="14" fill="url(#bg)"/>
  <rect x="4.5" y="4.5" width="55" height="55" rx="12" fill="none" stroke="#C8A24A" stroke-width="1.6"/>

  <!-- base plate -->
  <rect x="21" y="46.5" width="22" height="3.4" rx="1.7" fill="#C8A24A"/>
  <!-- candle body -->
  <rect x="26" y="29" width="12" height="18.5" rx="2.2" fill="#EBCF88"/>
  <line x1="29.5" y1="32" x2="29.5" y2="45.5" stroke="#C8A24A" stroke-width="0.8"/>
  <!-- wick -->
  <line x1="32" y1="26" x2="32" y2="29.3" stroke="#35231C" stroke-width="1.3" stroke-linecap="round"/>
  <!-- flame -->
  <path d="M32 13.5c2.6 3.4 4.2 5.9 4.2 8.2a4.2 4.2 0 0 1-8.4 0c0-2.3 1.6-4.8 4.2-8.2z" fill="#C8A24A"/>
  <path d="M32 18.3c1.4 1.9 2.2 3.2 2.2 4.5a2.2 2.2 0 0 1-4.4 0c0-1.3.8-2.6 2.2-4.5z" fill="#EBCF88"/>
</svg>
